<svg id="visual" viewBox="0 0 960 50" width="960" height="50" xmlns="http://www.w3.org/2000/svg" xmlns:xlink="http://www.w3.org/1999/xlink" version="1.1"><path d="M0 24L22.8 23.7C45.7 23.3 91.3 22.7 137 22.3C182.7 22 228.3 22 274 20.7C319.7 19.3 365.3 16.7 411.2 15.5C457 14.3 503 14.7 548.8 15.2C594.7 15.7 640.3 16.3 686 16.5C731.7 16.7 777.3 16.3 823 16.8C868.7 17.3 914.3 18.7 937.2 19.3L960 20L960 51L937.2 51C914.3 51 868.7 51 823 51C777.3 51 731.7 51 686 51C640.3 51 594.7 51 548.8 51C503 51 457 51 411.2 51C365.3 51 319.7 51 274 51C228.3 51 182.7 51 137 51C91.3 51 45.7 51 22.8 51L0 51Z" fill="#ff00aa"></path><path d="M0 24L22.8 24.5C45.7 25 91.3 26 137 26.8C182.7 27.7 228.3 28.3 274 26.8C319.7 25.3 365.3 21.7 411.2 20C457 18.3 503 18.7 548.8 19.3C594.7 20 640.3 21 686 22.5C731.7 24 777.3 26 823 25.5C868.7 25 914.3 22 937.2 20.5L960 19L960 51L937.2 51C914.3 51 868.7 51 823 51C777.3 51 731.7 51 686 51C640.3 51 594.7 51 548.8 51C503 51 457 51 411.2 51C365.3 51 319.7 51 274 51C228.3 51 182.7 51 137 51C91.3 51 45.7 51 22.8 51L0 51Z" fill="#ff4464"></path><path d="M0 32L22.8 31C45.7 30 91.3 28 137 27.8C182.7 27.7 228.3 29.3 274 29.7C319.7 30 365.3 29 411.2 29.3C457 29.7 503 31.3 548.8 30.7C594.7 30 640.3 27 686 26.3C731.7 25.7 777.3 27.3 823 28.7C868.7 30 914.3 31 937.2 31.5L960 32L960 51L937.2 51C914.3 51 868.7 51 823 51C777.3 51 731.7 51 686 51C640.3 51 594.7 51 548.8 51C503 51 457 51 411.2 51C365.3 51 319.7 51 274 51C228.3 51 182.7 51 137 51C91.3 51 45.7 51 22.8 51L0 51Z" fill="#ff832f"></path><path d="M0 31L22.8 31.8C45.7 32.7 91.3 34.3 137 34.7C182.7 35 228.3 34 274 33.2C319.7 32.3 365.3 31.7 411.2 31.7C457 31.7 503 32.3 548.8 32.7C594.7 33 640.3 33 686 32.7C731.7 32.3 777.3 31.7 823 32.3C868.7 33 914.3 35 937.2 36L960 37L960 51L937.2 51C914.3 51 868.7 51 823 51C777.3 51 731.7 51 686 51C640.3 51 594.7 51 548.8 51C503 51 457 51 411.2 51C365.3 51 319.7 51 274 51C228.3 51 182.7 51 137 51C91.3 51 45.7 51 22.8 51L0 51Z" fill="#fdc000"></path><path d="M0 38L22.8 38C45.7 38 91.3 38 137 38C182.7 38 228.3 38 274 38C319.7 38 365.3 38 411.2 38.3C457 38.7 503 39.3 548.8 39.8C594.7 40.3 640.3 40.7 686 40.3C731.7 40 777.3 39 823 39C868.7 39 914.3 40 937.2 40.5L960 41L960 51L937.2 51C914.3 51 868.7 51 823 51C777.3 51 731.7 51 686 51C640.3 51 594.7 51 548.8 51C503 51 457 51 411.2 51C365.3 51 319.7 51 274 51C228.3 51 182.7 51 137 51C91.3 51 45.7 51 22.8 51L0 51Z" fill="#d8ff00"></path></svg>