<svg id="visual" viewBox="0 0 960 50" width="960" height="50" xmlns="http://www.w3.org/2000/svg" xmlns:xlink="http://www.w3.org/1999/xlink" version="1.1"><path d="M0 24L22.8 24.3C45.7 24.7 91.3 25.3 137 25.7C182.7 26 228.3 26 274 27.3C319.7 28.7 365.3 31.3 411.2 32.5C457 33.7 503 33.3 548.8 32.8C594.7 32.3 640.3 31.7 686 31.5C731.7 31.3 777.3 31.7 823 31.2C868.7 30.7 914.3 29.3 937.2 28.7L960 28L960 0L937.2 0C914.3 0 868.7 0 823 0C777.3 0 731.7 0 686 0C640.3 0 594.7 0 548.8 0C503 0 457 0 411.2 0C365.3 0 319.7 0 274 0C228.3 0 182.7 0 137 0C91.3 0 45.7 0 22.8 0L0 0Z" fill="#ff00aa"></path><path d="M0 24L22.8 23.5C45.7 23 91.3 22 137 21.2C182.7 20.3 228.3 19.7 274 21.2C319.7 22.7 365.3 26.3 411.2 28C457 29.7 503 29.3 548.8 28.7C594.7 28 640.3 27 686 25.5C731.7 24 777.3 22 823 22.5C868.7 23 914.3 26 937.2 27.5L960 29L960 0L937.2 0C914.3 0 868.7 0 823 0C777.3 0 731.7 0 686 0C640.3 0 594.7 0 548.8 0C503 0 457 0 411.2 0C365.3 0 319.7 0 274 0C228.3 0 182.7 0 137 0C91.3 0 45.7 0 22.8 0L0 0Z" fill="#ff4464"></path><path d="M0 16L22.8 17C45.7 18 91.3 20 137 20.2C182.7 20.3 228.3 18.7 274 18.3C319.7 18 365.3 19 411.2 18.7C457 18.3 503 16.7 548.8 17.3C594.7 18 640.3 21 686 21.7C731.7 22.3 777.3 20.7 823 19.3C868.7 18 914.3 17 937.2 16.5L960 16L960 0L937.2 0C914.3 0 868.7 0 823 0C777.3 0 731.7 0 686 0C640.3 0 594.7 0 548.8 0C503 0 457 0 411.2 0C365.3 0 319.7 0 274 0C228.3 0 182.7 0 137 0C91.3 0 45.7 0 22.8 0L0 0Z" fill="#ff832f"></path><path d="M0 17L22.8 16.2C45.7 15.3 91.3 13.7 137 13.3C182.7 13 228.3 14 274 14.8C319.7 15.7 365.3 16.3 411.2 16.3C457 16.3 503 15.7 548.8 15.3C594.7 15 640.3 15 686 15.3C731.7 15.7 777.3 16.3 823 15.7C868.7 15 914.3 13 937.2 12L960 11L960 0L937.2 0C914.3 0 868.7 0 823 0C777.3 0 731.7 0 686 0C640.3 0 594.7 0 548.8 0C503 0 457 0 411.2 0C365.3 0 319.7 0 274 0C228.3 0 182.7 0 137 0C91.3 0 45.7 0 22.8 0L0 0Z" fill="#fdc000"></path><path d="M0 10L22.8 10C45.7 10 91.3 10 137 10C182.7 10 228.3 10 274 10C319.7 10 365.3 10 411.2 9.7C457 9.3 503 8.7 548.8 8.2C594.7 7.7 640.3 7.3 686 7.7C731.7 8 777.3 9 823 9C868.7 9 914.3 8 937.2 7.5L960 7L960 0L937.2 0C914.3 0 868.7 0 823 0C777.3 0 731.7 0 686 0C640.3 0 594.7 0 548.8 0C503 0 457 0 411.2 0C365.3 0 319.7 0 274 0C228.3 0 182.7 0 137 0C91.3 0 45.7 0 22.8 0L0 0Z" fill="#d8ff00"></path></svg>