<?xml version="1.0" encoding="utf-8"?>
<!-- Generator: Adobe Illustrator 16.0.0, SVG Export Plug-In . SVG Version: 6.00 Build 0)  -->
<!DOCTYPE svg PUBLIC "-//W3C//DTD SVG 1.1//EN" "http://www.w3.org/Graphics/SVG/1.1/DTD/svg11.dtd">
<svg version="1.1" id="Layer_1" xmlns="http://www.w3.org/2000/svg" xmlns:xlink="http://www.w3.org/1999/xlink" x="0px" y="0px"
	 width="263.333px" height="45.328px" viewBox="0 0 263.333 45.328" enable-background="new 0 0 263.333 45.328"
	 xml:space="preserve">
<line fill="none" stroke="#000000" stroke-width="3.05" stroke-miterlimit="10" x1="34.427" y1="35.052" x2="43.802" y2="35.052"/>
<line fill="none" stroke="#000000" stroke-width="3.05" stroke-miterlimit="10" x1="35.302" y1="29.604" x2="44.677" y2="29.604"/>
<text transform="matrix(1 0 0 1 8.5439 36.0698)"><tspan x="0" y="0" fill="#522583" stroke="#000000" stroke-miterlimit="10" font-family="'MilleniumBT-BoldExtended'" font-size="39">LAE</tspan><tspan x="105.729" y="0" fill="#F18700" stroke="#000000" stroke-miterlimit="10" font-family="'MilleniumBT-BoldExtended'" font-size="39">MKRI</tspan></text>
<line fill="#522583" stroke="#522583" stroke-width="3.05" stroke-miterlimit="10" x1="36.396" y1="32.325" x2="45.771" y2="32.325"/>
<g>
	<g>
		<g>
			<path d="M207.333,4.733c0,0.33-0.27,0.6-0.6,0.6H3.914c-0.33,0-0.6-0.27-0.6-0.6v-1.3c0-0.33,0.27-0.6,0.6-0.6h202.82
				c0.33,0,0.6,0.27,0.6,0.6V4.733z"/>
			<path fill="none" stroke="#000000" stroke-miterlimit="10" d="M207.333,4.733c0,0.33-0.27,0.6-0.6,0.6H3.914
				c-0.33,0-0.6-0.27-0.6-0.6v-1.3c0-0.33,0.27-0.6,0.6-0.6h202.82c0.33,0,0.6,0.27,0.6,0.6V4.733z"/>
		</g>
		<g>
			<path d="M3.914,27.661c-0.33,0-0.6-0.27-0.6-0.6V3.433c0-0.33,0.27-0.6,0.6-0.6h1.3c0.33,0,0.6,0.27,0.6,0.6v23.627
				c0,0.33-0.27,0.6-0.6,0.6H3.914z"/>
			<path fill="none" stroke="#000000" stroke-miterlimit="10" d="M3.914,27.661c-0.33,0-0.6-0.27-0.6-0.6V3.433
				c0-0.33,0.27-0.6,0.6-0.6h1.3c0.33,0,0.6,0.27,0.6,0.6v23.627c0,0.33-0.27,0.6-0.6,0.6H3.914z"/>
		</g>
	</g>
</g>
<g>
	<g>
		<g>
			<path d="M56.313,40.118c0-0.33,0.27-0.6,0.6-0.6h202.82c0.33,0,0.6,0.27,0.6,0.6v1.3c0,0.33-0.27,0.6-0.6,0.6H56.914
				c-0.33,0-0.6-0.27-0.6-0.6V40.118z"/>
			<path fill="none" stroke="#000000" stroke-miterlimit="10" d="M56.313,40.118c0-0.33,0.27-0.6,0.6-0.6h202.82
				c0.33,0,0.6,0.27,0.6,0.6v1.3c0,0.33-0.27,0.6-0.6,0.6H56.914c-0.33,0-0.6-0.27-0.6-0.6V40.118z"/>
		</g>
		<g>
			<path d="M259.733,17.19c0.33,0,0.6,0.27,0.6,0.6v23.627c0,0.33-0.27,0.6-0.6,0.6h-1.3c-0.33,0-0.6-0.27-0.6-0.6V17.79
				c0-0.33,0.27-0.6,0.6-0.6H259.733z"/>
			<path fill="none" stroke="#000000" stroke-miterlimit="10" d="M259.733,17.19c0.33,0,0.6,0.27,0.6,0.6v23.627
				c0,0.33-0.27,0.6-0.6,0.6h-1.3c-0.33,0-0.6-0.27-0.6-0.6V17.79c0-0.33,0.27-0.6,0.6-0.6H259.733z"/>
		</g>
	</g>
</g>
</svg>
